<svg xmlns="http://www.w3.org/2000/svg" width="261.76" height="226.69" viewBox="0 0 261.76 226.69"><path d="M180.81,78a5,5,0,0,0-1.42.58c-5.76,2.7-11.39,5.67-17.06,8.56-3.74,1.91-7.48,3.85-11.19,5.82s-7.32,3.69-11,5.55c-.19.1-.37.2-.57.29s-.57.37-.89.16-.26-.57-.25-.94a23.06,23.06,0,0,0-.09-4.55,4.83,4.83,0,0,1,0-.85c0-7.26-.08-14.52,0-21.77a42,42,0,0,1,2.25-14,28.07,28.07,0,0,1,5.29-8.87,59.91,59.91,0,0,1,10.26-8.82,112.82,112.82,0,0,1,12.75-7.79c5-2.67,10.07-5.14,15.08-7.76,5.55-2.9,11.08-5.81,16.65-8.65,4.82-2.46,9.62-5,14.43-7.43,1.73-.89,3.45-1.78,5.19-2.66a2.27,2.27,0,0,1,1.18-.41,1.57,1.57,0,0,1,.1.93q0,19.8,0,39.62,0,39.55-.05,79.13c0,3.79.09,7.57,0,11.36a76.2,76.2,0,0,1-6.36,29.83,83.59,83.59,0,0,1-12.69,20.11,109.08,109.08,0,0,1-8.73,9.25,102.57,102.57,0,0,1-11.4,9.3,117.85,117.85,0,0,1-13.22,8,128.38,128.38,0,0,1-25.43,9.86l-3.37.93a4.68,4.68,0,0,1-.83.16c-.7.05-.69,0-.81-.74a18.85,18.85,0,0,1-.15-3.27v-39.3c0-1.84,0-3.68-.05-5.52v-.75a2.6,2.6,0,0,1,1.87-2.65c1.69-.63,3.38-1.26,5-2A68.46,68.46,0,0,0,163,158.32,45.51,45.51,0,0,0,175.74,141,59.35,59.35,0,0,0,180,125.08c.34-2.7.51-5.4.66-8.12.18-3.25.08-6.5.19-9.75.33-9.41,0-18.82.15-28.24A1.65,1.65,0,0,0,180.81,78Z" style="fill:#35a4dc"/><path d="M123.44,99.3,81.54,77.86a1,1,0,0,0-.29.71c0,.21,0,.42,0,.63q0,13.76-.06,27.51c0,2,0,4,.07,6.05.1,2.86.21,5.72.43,8.57a60,60,0,0,0,4.79,20.19,48,48,0,0,0,8.64,13,55.34,55.34,0,0,0,16.13,11.68c3.49,1.72,7.11,3.12,10.71,4.58,1.4.57,1.53.76,1.53,2.28,0,8-.13,16.08,0,24.11s0,15.93.11,23.89v.42c0,1.44-.39,1.84-1.68,1.33-4-1.59-8.31-2.25-12.36-3.73-4.48-1.64-8.89-3.42-13.2-5.48a113.87,113.87,0,0,1-16.64-9.72,105.91,105.91,0,0,1-23.94-23.37A77.56,77.56,0,0,1,44.23,158.7a69.41,69.41,0,0,1-3-13,77,77,0,0,1-.62-9.72V5.58c0-1.26.3-1.45,1.39-.84,3.22,1.78,6.51,3.41,9.78,5.09L71.67,20.1c5,2.61,10,5.2,15,7.85,4.68,2.48,9.43,4.83,14,7.6a85,85,0,0,1,12.86,9.65A29.82,29.82,0,0,1,123,62.78c.28,1.63.4,3.28.53,4.94.46,5.61.39,11.23.31,16.85,0,3.39-.1,6.79-.22,10.18C123.54,96.19,123.56,97.64,123.44,99.3Z" style="fill:#2a75ba"/></svg>